<?xml version="1.0" encoding="utf-8"?>
<!-- Generator: Adobe Illustrator 21.1.0, SVG Export Plug-In . SVG Version: 6.00 Build 0)  -->
<svg version="1.1" id="Capa_1" xmlns="http://www.w3.org/2000/svg" xmlns:xlink="http://www.w3.org/1999/xlink" x="0px" y="0px"
	 viewBox="0 0 239.3 202" style="enable-background:new 0 0 239.3 202;" xml:space="preserve">
<style type="text/css">
	.st0{fill:#FFFFFF;}
</style>
<g>
	<path class="st0" d="M198.9,15.6c-60.9,0-121.7,0-182.6,0c0,41.7,0,83.4,0,125.3c0.7,0,1.4,0,2.1,0c24.3,0,48.5,0,72.8,0
		c0.8,0,1.7-0.2,2.3,0.2c0.6,0.3,1.4,1.2,1.4,1.8c0,0.6-0.9,1.3-1.5,1.6c-0.6,0.3-1.4,0.1-2.1,0.1c-24.3,0-48.5,0-72.8,0
		c-3.6,0-7.2,0-10.8,0.1c-1.8,0-2.3-0.9-2.3-2.6c0-6.9,0-13.8,0-20.7c0-35.5,0-71,0-106.5c0-1.4,0-2.7,0-4.1c0.1-3.8,2.1-6,6-6.1
		c0.4,0,0.8,0,1.2,0c61,0,122,0,182.9,0c1.4,0,2.9,0.2,4.1,0.7c2.3,1,2.9,3.1,2.9,5.6c0,19.1,0,38.2,0,57.3c0,1.8,0,3.6,0,5.4
		c0,1.3,0,2.6-1.8,2.6c-1.7,0-1.8-1.3-1.8-2.6c0-9,0-18.1,0-27.1c0-9.8,0-19.6,0-29.4C198.9,16.7,198.9,16.3,198.9,15.6z M30.2,11.9
		c56.1,0,112.3,0,168.6,0c0.3-3.1-0.2-3.6-3.2-3.6c-54.5,0-109,0-163.5,0c-0.7,0-1.3,0-1.6,0C30.3,9.7,30.3,10.7,30.2,11.9z
		 M12.6,58c-1.1,0.2-2.2,0.5-3.4,0.7c0,2.2,0,4.5,0,6.8c1.2,0.3,2.3,0.5,3.4,0.7C12.6,63.5,12.6,60.7,12.6,58z M12.6,77
		c0-2.8,0-5.6,0-8.3c-1.2,0.3-2.3,0.5-3.5,0.8c0,2.2,0,4.4,0,6.7C10.3,76.4,11.4,76.7,12.6,77z M12.5,109.2c0-2.7,0-5.5,0-8.2
		c-1.2,0.3-2.3,0.5-3.4,0.7c0,2.3,0,4.6,0,6.8C10.4,108.8,11.4,109,12.5,109.2z M12.5,55.5c0-2.7,0-5.5,0-8.2
		c-1.2,0.3-2.3,0.5-3.4,0.8c0,2.3,0,4.6,0,6.7C10.3,55,11.4,55.2,12.5,55.5z M12.5,120c0-2.7,0-5.5,0-8.2c-1.2,0.2-2.3,0.5-3.4,0.7
		c0,2.3,0,4.5,0,6.8C10.4,119.5,11.5,119.8,12.5,120z M12.6,98.5c0-2.7,0-5.5,0-8.2c-1.1,0.3-2.2,0.5-3.4,0.8c0,2.2,0,4.5,0,6.7
		C10.3,98,11.4,98.2,12.6,98.5z M12.5,44.7c0-2.8,0-5.5,0-8.2c-1.2,0.3-2.3,0.5-3.5,0.8c0,2.2,0,4.4,0,6.6
		C10.3,44.2,11.4,44.4,12.5,44.7z M12.5,87.7c0-2.7,0-5.5,0-8.2c-1.2,0.3-2.3,0.5-3.4,0.8c0,2.2,0,4.4,0,6.6
		C10.3,87.2,11.3,87.4,12.5,87.7z M12.6,130.7c0-2.8,0-5.5,0-8.2c-1.2,0.3-2.3,0.6-3.4,0.8c0,2.3,0,4.5,0,6.6
		C10.3,130.2,11.4,130.4,12.6,130.7z M9.1,33.1c1.2,0.3,2.3,0.5,3.4,0.8c0-2.8,0-5.5,0-8.2c-1.2,0.3-2.3,0.5-3.4,0.8
		C9.1,28.7,9.1,30.9,9.1,33.1z M9,15.6c0,1.4,0.1,2.7,0,4.1c-0.1,1.9-0.1,3.5,2.5,3.3c0.3,0,0.7,0.3,1,0.5c0-2.6,0-5.2,0-7.8
		C11.4,15.6,10.4,15.6,9,15.6z M9.1,134.1c0,2.2,0,4.4,0,6.7c1.2,0,2.2,0,3.5,0c0-1.4,0-2.6,0-3.9c0-1.2,0-2.5,0-3.7
		C11.4,133.5,10.4,133.8,9.1,134.1z M15.8,11.9c1.4,0,3.1,0,4.5,0c-0.1-1.2-0.1-2.3-0.2-3.5c-1.3,0-2.8,0-4,0
		C16,9.6,15.9,10.8,15.8,11.9z M27.2,8.4c-1.2,0-2.7,0-4,0c-0.1,1.3-0.1,2.4-0.2,3.5c1.4,0,3.1,0,4.4,0C27.4,10.7,27.3,9.7,27.2,8.4
		z M9.2,11.9c1.5,0,2.9,0,3.9,0C13,10.7,13,9.6,12.9,8.4C9.7,7.9,8.9,8.6,9.2,11.9z"/>
	<path class="st0" d="M206,114.1c0.2,30.2-24.5,55.6-55.6,55.5c-30.7-0.1-55.4-24.9-55.4-55.5c0-29.9,23.9-55.5,55.4-55.5
		C182.3,58.5,206.2,84.6,206,114.1z M150.4,62.1c-28.7,0.1-51.8,23.2-51.8,51.9c0,28.5,22.9,51.9,51.8,52
		c28.6,0.1,51.9-23.2,52-51.9C202.5,85.5,179.2,62.1,150.4,62.1z"/>
	<path class="st0" d="M234.7,190.9c0,3.3-1.7,5.8-4.4,6.9c-2.8,1.1-5.8,0.5-8-1.7c-10.9-11-21.9-21.9-32.8-32.9
		c-0.4-0.4-1-0.8-1.2-1.3c-0.2-0.8-0.5-1.9-0.1-2.5c0.7-1.1,1.8-0.7,2.6,0.1c2.3,2.3,4.7,4.6,7,7c8.5,8.5,17,17,25.5,25.5
		c0.7,0.7,1.4,1.4,2.1,2c1.4,1.2,3.5,1.1,4.7-0.1c1.3-1.3,1.4-3.3,0.3-4.8c-0.5-0.7-1.1-1.2-1.7-1.8c-10.6-10.6-21.2-21.2-31.8-31.8
		c-0.4-0.4-1-0.8-1.2-1.3c-0.2-0.8-0.4-2,0-2.3c0.4-0.4,1.6-0.3,2.4-0.1c0.5,0.1,0.9,0.7,1.3,1.1c10.9,10.9,21.8,21.8,32.8,32.7
		C233.7,187.1,234.8,188.9,234.7,190.9z"/>
	<path class="st0" d="M77,54.9c13.4,0,26.7,0,40.1,0c0.6,0,1.4-0.1,1.9,0.2c0.5,0.4,1,1.2,1,1.8c0,0.5-0.7,1.2-1.2,1.4
		c-0.5,0.3-1.3,0.1-1.9,0.1c-26.4,0-52.9,0-79.3,0c-1.4,0-3.2,0.3-3.3-1.7c0-2.1,1.9-1.9,3.3-1.9C50.6,54.9,63.8,54.9,77,54.9z"/>
	<path class="st0" d="M59.1,90.8c-9.5,0-19,0-28.4,0c-0.5,0-1,0-1.5,0C28,90.7,27,90.4,27,89c0-1.3,0.9-1.8,2-1.9
		c0.7-0.1,1.4,0,2.1,0c19.1,0,38.2,0,57.2,0c0.6,0,1.4,0,1.9,0.3c0.5,0.3,1,1.1,1,1.6c0,0.5-0.6,1.3-1.1,1.5
		c-0.6,0.3-1.4,0.2-2.1,0.2C78.4,90.8,68.7,90.8,59.1,90.8z"/>
	<path class="st0" d="M62.7,47.7c-9.4,0-18.7,0-28.1,0c-0.3,0-0.6,0-1,0c-1.4,0-3.2,0.2-3.1-1.9c0.1-1.8,1.7-1.8,3.1-1.8
		c4.4,0,8.8,0,13.2,0c15,0,30.1,0,45.1,0c0.7,0,1.5,0,2,0.4c0.5,0.3,1,1.1,0.9,1.6c-0.1,0.5-0.7,1.2-1.2,1.4
		c-0.6,0.3-1.4,0.2-2.1,0.2C81.9,47.7,72.3,47.7,62.7,47.7z"/>
	<path class="st0" d="M78.7,37.1c-7.9,0-15.8,0-23.8,0c-0.5,0-1.1,0-1.5-0.2c-0.5-0.4-1.2-1.1-1.2-1.7c0-0.6,0.7-1.3,1.2-1.6
		c0.5-0.3,1.2-0.2,1.9-0.2c15.7,0,31.4,0,47.2,0c0.1,0,0.1,0,0.2,0c1.4,0,3-0.1,3,1.9c0,1.9-1.6,1.8-3,1.8
		C94.7,37.1,86.7,37.1,78.7,37.1C78.7,37.1,78.7,37.1,78.7,37.1z"/>
	<path class="st0" d="M76.8,69.3c-8.4,0-16.9,0-25.3,0c-0.6,0-1.3,0.1-1.7-0.1c-0.6-0.4-1.2-1.1-1.2-1.7c0-0.6,0.8-1.2,1.4-1.6
		c0.4-0.3,1.1-0.1,1.7-0.1c16.8,0,33.7,0,50.5,0c0.5,0,1.2-0.2,1.5,0.1c0.6,0.4,1.5,1.1,1.5,1.7c0,0.6-0.8,1.3-1.4,1.7
		c-0.3,0.2-1,0.1-1.5,0.1C93.7,69.3,85.3,69.3,76.8,69.3z"/>
	<path class="st0" d="M123.8,47.7c-7.2,0-14.4,0-21.6,0c-0.6,0-1.4,0.2-1.9-0.1c-0.6-0.3-1.4-1-1.5-1.6c-0.1-0.5,0.7-1.3,1.2-1.7
		c0.4-0.3,1.1-0.2,1.7-0.2c14.7,0,29.4,0,44.1,0c0.7,0,1.5,0,2,0.4c0.5,0.3,0.9,1.1,0.9,1.7c0,0.5-0.6,1.1-1.1,1.4
		c-0.6,0.3-1.4,0.2-2.1,0.2C138.2,47.7,131,47.7,123.8,47.7z"/>
	<path class="st0" d="M53.7,80.1c-6.8,0-13.5,0-20.3,0c-0.6,0-1.3,0-1.7-0.3c-0.5-0.4-1.2-1.2-1.1-1.7c0-0.5,0.8-1.2,1.4-1.5
		c0.5-0.3,1.1-0.1,1.7-0.1c13.3,0,26.7,0,40,0c0.3,0,0.5,0,0.8,0c1.2,0,2.5,0.2,2.5,1.8c0,1.7-1.3,1.9-2.6,1.9c-1.9,0-3.7,0-5.6,0
		C63.8,80.1,58.7,80.1,53.7,80.1C53.7,80.1,53.7,80.1,53.7,80.1z"/>
	<path class="st0" d="M51.9,101.5c-6.3,0-12.5,0-18.8,0c-1.3,0-2.7-0.1-2.6-1.8c0-1.6,1.3-1.8,2.7-1.8c12.6,0,25.1,0,37.7,0
		c1.3,0,2.5,0.2,2.5,1.7c0.1,1.7-1.2,1.9-2.6,1.8C64.6,101.5,58.3,101.5,51.9,101.5z"/>
	<path class="st0" d="M46.8,108.7c5.7,0,11.4,0,17,0c1.3,0,2.5,0.3,2.5,1.8c0,1.5-1.1,1.8-2.4,1.8c-11.5,0-23,0-34.5,0
		c-1.3,0-2.4-0.3-2.4-1.9c0-1.5,1.1-1.7,2.3-1.7C35.1,108.7,41,108.7,46.8,108.7z"/>
	<path class="st0" d="M43.2,119.5c4.4,0,8.9,0,13.3,0c1.3,0,2.6,0.1,2.6,1.8c-0.1,1.6-1.4,1.8-2.7,1.8c-8.9,0-17.9,0-26.8,0
		c-1.3,0-2.6-0.2-2.6-1.9c0-1.6,1.3-1.7,2.5-1.7C34.1,119.5,38.6,119.5,43.2,119.5z"/>
	<path class="st0" d="M37.5,37.1c-2.7,0-5.4,0-8.1,0c-1.3,0-2.4-0.3-2.4-1.9c0-1.5,1-1.8,2.2-1.8c5.6,0,11.2,0,16.8,0
		c1.2,0,2.3,0.2,2.3,1.7c0,1.5-1.1,1.9-2.4,1.9C43.1,37.1,40.3,37.1,37.5,37.1z"/>
	<path class="st0" d="M91.4,80.1c-2.7,0-5.4,0-8.1,0c-1.2,0-2.4-0.3-2.4-1.8c0-1.6,1.2-1.8,2.4-1.8c5.5,0,11,0,16.4,0
		c1.2,0,2.5,0.2,2.4,1.8c0,1.5-1.2,1.8-2.4,1.8C96.9,80.1,94.1,80.1,91.4,80.1z"/>
	<path class="st0" d="M32.4,130.3c2.2,0,4.4,0,6.6,0c1.3,0,2.3,0.4,2.3,1.8c0,1.3-1.1,1.8-2.3,1.8c-4.5,0-9,0-13.5,0
		c-1.2,0-2-0.6-2-1.8c0-1.3,0.8-1.8,2-1.8C27.8,130.2,30.1,130.3,32.4,130.3z"/>
	<path class="st0" d="M161.4,47.7c-2.2,0-4.4,0-6.6,0c-1.2,0-2.3-0.2-2.3-1.7c0-1.4,1-1.9,2.2-1.9c4.5,0,8.9,0,13.4,0
		c1.2,0,2.2,0.5,2.2,1.9c0,1.4-1.1,1.7-2.3,1.7C165.7,47.7,163.5,47.7,161.4,47.7z"/>
	<path class="st0" d="M32.3,22.7c2.3,0,4.6-0.1,6.9,0.1c0.7,0.1,1.4,1,2.1,1.5c-0.7,0.7-1.3,1.8-2,1.9c-4.7,0.2-9.4,0.2-14.1,0
		c-0.6,0-1.2-1.1-1.8-1.7c0.6-0.6,1.2-1.6,1.9-1.6C27.6,22.6,29.9,22.7,32.3,22.7z"/>
	<path class="st0" d="M37.7,69.3c-1.7,0-3.5,0-5.2,0c-1.2,0-2.2-0.7-1.9-1.8c0.1-0.7,1.2-1.6,1.9-1.6c3.5-0.2,6.9-0.2,10.4,0
		c0.7,0,1.3,1.1,1.9,1.7c-0.6,0.6-1.2,1.6-1.9,1.7C41.2,69.4,39.5,69.3,37.7,69.3z"/>
	<path class="st0" d="M84.3,101.5c-1.7,0-3.5,0.2-5.2-0.1c-0.7-0.1-1.3-1.1-2-1.6c0.6-0.6,1.2-1.7,1.9-1.7c3.5-0.2,7-0.2,10.4,0
		c0.7,0,1.7,1,1.8,1.7c0.3,1.2-0.7,1.8-1.9,1.8C87.7,101.5,86,101.5,84.3,101.5C84.3,101.5,84.3,101.5,84.3,101.5z"/>
	<path class="st0" d="M134.5,119.2c-1.9,0.1-3.7,0.4-5.4,0.2c-0.6-0.1-1.2-1.1-1.8-1.6c0.6-0.6,1.2-1.7,1.8-1.8
		c1.7-0.2,3.5,0.1,4.9,0.2c0.9-2.8,1.5-6.1,3-9c2.7-5.4,6.9-9.1,13.3-9.2c6.8-0.1,11.2,3.8,14,9.5c1.4,2.8,1.9,5.9,2.8,8.6
		c1.5-0.1,3.3-0.4,5-0.2c0.6,0.1,1.5,1.1,1.6,1.8c0.1,0.5-1,1.6-1.6,1.6c-1.7,0.2-3.5-0.1-5.1-0.1c-0.7,2.4-1.2,5.1-2.2,7.6
		c-1.6,4.1-4.4,7.4-8.6,9.3c-6.2,2.8-12.7,0.9-17.2-4.7C136.3,127.9,135.1,124.7,134.5,119.2z M162.2,112.2
		c-1.3-5.8-6-10.8-11.8-10.6c-6.7,0.2-10.9,6.8-11.3,10.6C146.8,112.2,154.4,112.2,162.2,112.2z M152.4,115.9c0,5.4,0,10.7,0,16
		c0,0.5,0.1,1,0.1,1.5c7.1-1.1,11.7-10.8,10.2-17.5C159.4,115.9,156.1,115.9,152.4,115.9z M148.8,133.4c0-5.6,0-11.2,0-16.8
		c0-0.3-0.5-0.8-0.8-0.8c-3.2-0.1-6.4,0-9.5,0C137.2,123.9,141.9,132,148.8,133.4z"/>
	<path class="st0" d="M106,111.6c0.6-18.2,14-35.4,31.7-40.3c3.9-1.1,8-1.4,12-2c1.3-0.2,2.6,0,2.7,1.7c0.1,1.7-1.2,1.9-2.5,1.9
		c-9.2,0.3-17.6,3.2-24.8,9c-8.4,6.8-13.6,15.5-15.1,26.3c-0.2,1.7-0.3,3.5-0.4,5.2c-0.1,1.2-0.4,2.4-1.9,2.4
		c-1.6,0-1.7-1.2-1.7-2.4C105.9,112.7,105.9,112.1,106,111.6z"/>
	<path class="st0" d="M173.8,133.3c0,0.9,0.2,1.6-0.1,2.1c-0.4,0.7-1.1,1.3-1.7,1.9c-0.6-0.6-1.5-1.2-1.7-1.9
		c-0.4-1.7-0.2-3.6-0.5-5.3c-0.2-1.5-0.5-3.1-2.3-3.9c-0.5-0.2-0.9-1.4-0.7-1.9c0.2-0.6,1.1-1.3,1.6-1.2c1,0.2,2.1,0.6,2.8,1.4
		C173.5,127.1,173.6,130.4,173.8,133.3z"/>
	<path class="st0" d="M132.4,112.9c-1.3-1.3-2.7-2.1-3.3-3.3c-1.7-3-1.9-6.5-1.7-9.9c0-0.6,1.2-1.2,1.9-1.7c0.5,0.6,1.3,1.2,1.5,1.9
		c0.3,1.4,0.2,2.9,0.4,4.4c0.3,1.9,0.3,4,2.6,5c0.4,0.2,0.8,1.3,0.6,1.8C134.2,111.6,133.4,112,132.4,112.9z"/>
	<path class="st0" d="M174.2,102c-0.6,2.4-1,4.9-1.9,7.2c-0.5,1.2-1.9,2.2-3.1,2.9c-0.4,0.3-1.7-0.2-2.1-0.7c-0.3-0.4-0.2-1.8,0.2-2
		c2.9-1.6,2.5-4.5,2.9-7.1c0.1-0.7,0-1.4,0.1-2.1c0-1.3,0.7-2.1,2-2.1c1.3,0,1.6,1,1.6,2.2c0,0.6,0,1.2,0,1.7
		C173.9,101.9,174.1,101.9,174.2,102z"/>
	<path class="st0" d="M126.9,133.9c0.7-2.6,1.1-5.4,2.1-7.9c0.5-1.2,2.1-2,3.3-2.8c0.3-0.2,1.6,0.4,1.8,0.9c0.2,0.6-0.1,1.9-0.5,2.1
		c-1.9,0.9-2,2.7-2.4,4.3c-0.3,1.4-0.3,2.9-0.4,4.4c0,1.3-0.4,2.4-1.8,2.4c-1.6,0-1.8-1.2-1.7-2.4c0-0.3,0-0.6,0-1
		C127.2,133.9,127.1,133.9,126.9,133.9z"/>
	<path class="st0" d="M163.3,89.1c-0.4,0.7-0.7,1.2-1.1,1.7c-2.1,2.1-4.2,4.2-6.3,6.3c-0.9,0.9-2,1.5-3,0.3c-0.9-1-0.4-2,0.4-2.9
		c2.1-2.1,4.2-4.3,6.5-6.3c0.5-0.5,1.6-0.6,2.4-0.6C162.6,87.6,162.9,88.5,163.3,89.1z"/>
	<path class="st0" d="M147.1,98.2c-0.7-0.4-1.3-0.7-1.7-1.1c-2.2-2.1-4.3-4.3-6.4-6.4c-0.8-0.9-1.4-2-0.2-2.8
		c0.6-0.4,2.1-0.2,2.6,0.3c2.3,2,4.5,4.3,6.6,6.5c0.5,0.5,0.6,1.5,0.6,2.2C148.4,97.3,147.6,97.7,147.1,98.2z"/>
</g>
</svg>
